<?xml version="1.0" encoding="UTF-8"?>
<svg width="860px" height="265px" viewBox="0 0 860 265" version="1.1" xmlns="http://www.w3.org/2000/svg" xmlns:xlink="http://www.w3.org/1999/xlink">
    <!-- Generator: Sketch 63.1 (92452) - https://sketch.com -->
    <title>Untitled</title>
    <desc>Created with Sketch.</desc>
    <g id="Page-1" stroke="none" stroke-width="1" fill="none" fill-rule="evenodd">
        <g id="logo">
            <g id="text-1-link" transform="translate(180.000000, 34.000000)" fill="#000000" font-family="NanumPen, Nanum Pen Script" font-size="200" font-weight="normal">
                <text id="ARITHBAR">
                    <tspan x="0.5" y="184">ARITHBAR</tspan>
                </text>
            </g>
            <g id="solarsystem" fill-rule="nonzero">
                <path d="M0,90 C0,40.3028786 39.8199835,0 88.9595376,0 C138.099092,0 177.919075,40.3028786 177.919075,90 C177.919075,139.697121 138.099092,180 88.9595376,180 C39.8199835,180 0,139.697121 0,90 Z" id="Path" fill="#333F50"></path>
                <path d="M17.870298,116.177082 L17.9815637,116.581726 L18.02607,116.986369 L18.0038169,117.391013 L17.9148043,117.773176 L17.7812854,118.13286 L17.5810072,118.470063 L17.3362226,118.784786 L17.0469317,119.054548 L16.7131346,119.27935 L16.3348311,119.459192 L15.9342745,119.571593 L15.5337179,119.616553 L15.1331614,119.594073 L14.7548579,119.504152 L14.3765545,119.369271 L14.0427573,119.166949 L13.7312133,118.919667 L13.4641756,118.627424 L13.2416442,118.290221 L13.063619,117.908058 L12.8410876,117.256132 L12.6185561,116.604206 L12.4182778,115.95228 L12.2179995,115.300354 L12.0177213,114.648428 L11.817443,113.996503 L11.6171647,113.344577 L11.4391395,112.692651 L11.2611144,112.040725 L11.0830892,111.388799 L10.9050641,110.736873 L10.7492921,110.084948 L10.5935201,109.433022 L10.4377481,108.781096 L10.2819761,108.12917 L10.1484572,107.477244 L10.0149383,106.825318 L9.88141947,106.173392 L9.74790061,105.521467 L9.63663489,104.869541 L9.52536918,104.217615 L9.41410346,103.565689 L9.30283774,102.913763 L9.21382517,102.239357 L9.12481259,101.564951 L9.03580002,100.890545 L8.94678744,100.216139 L8.85777487,99.5417329 L8.79101544,98.8673269 L8.72425601,98.1929208 L8.65749658,97.5185148 L8.59073714,96.8441088 L8.54623086,96.1697027 L8.50172457,95.4952967 L8.45721828,94.8208906 L8.412712,94.1464846 L8.39045885,93.4720785 L8.36820571,92.7976725 L8.34595257,92.1232664 L8.32369942,91.4488604 L8.32369942,88.0768301 L8.34595257,87.4024241 L8.36820571,86.728018 L8.39045885,86.053612 L8.412712,85.3792059 L8.45721828,84.7047999 L8.50172457,84.0303938 L8.54623086,83.3559878 L8.59073714,82.6815817 L8.65749658,82.0071757 L8.72425601,81.3327696 L8.79101544,80.6583636 L8.85777487,79.9839575 L8.94678744,79.3320317 L9.03580002,78.6801058 L9.12481259,78.02818 L9.21382517,77.3762541 L9.30283774,76.7243283 L9.41410346,76.0724025 L9.52536918,75.4204766 L9.63663489,74.7685508 L9.74790061,74.1166249 L9.88141947,73.4646991 L10.0149383,72.8127732 L10.1484572,72.1608474 L10.2819761,71.5089215 L10.4377481,70.8569957 L10.5935201,70.2050698 L10.7492921,69.553144 L10.9050641,68.9012181 L11.0608361,68.2492923 L11.2388612,67.5973664 L11.4168864,66.9454406 L11.5949115,66.2935147 L11.7729367,65.6415889 L11.973215,64.9896631 L12.1734933,64.3377372 L12.3737716,63.7082916 L12.5740498,63.0788459 L12.7965813,62.4494003 L13.0191127,61.8199546 L13.2416442,61.190509 L13.4641756,60.5610633 L13.686707,59.9316177 L13.9314916,59.302172 L14.1762762,58.6727264 L14.4210608,58.0432808 L14.6658453,57.4138351 L14.9328831,56.7843895 L15.1999208,56.1549438 L15.4669585,55.5254982 L15.7339962,54.8960525 L16.0232871,54.2890871 L16.312578,53.6821216 L16.8911597,52.4681908 L17.2027037,51.8387451 L17.5142477,51.2317797 L17.8257917,50.6248142 L18.1373357,50.0178488 L18.4488798,49.4108833 L18.7826769,48.8263981 L19.1164741,48.2419128 L19.4502712,47.6574276 L19.7840684,47.0729424 L20.1178655,46.4884571 L20.4739158,45.9039719 L20.8299661,45.3194866 L21.1860164,44.7574816 L21.5420667,44.1954766 L21.898117,43.6334715 L22.2541673,43.0714665 L22.6324707,42.5094614 L23.0107742,41.9474564 L23.3890776,41.3854514 L23.7673811,40.8459265 L24.1456845,40.3064017 L24.5462411,39.7668768 L24.9467977,39.227352 L25.3473543,38.6878272 L25.7479108,38.1483023 L26.1484674,37.6087775 L26.5712772,37.0917328 L26.9940869,36.5746882 L27.4168966,36.0576436 L27.8397063,35.5405989 L28.2625161,35.0235543 L28.6853258,34.5065097 L29.1303887,34.0119452 L29.5754515,33.5173808 L30.0205144,33.0228164 L30.4655773,32.5282519 L30.9106402,32.0336875 L31.355703,31.539123 L31.823019,31.0670388 L32.2903351,30.5949546 L32.7576511,30.1228703 L33.2249671,29.6507861 L33.6922831,29.1787019 L34.1595991,28.7066176 L34.6491683,28.2570136 L35.1387374,27.8074096 L35.6283066,27.3578055 L36.1178758,26.9082015 L36.6074449,26.4585975 L37.0970141,26.0089934 L37.6088364,25.5818696 L38.1206587,25.1547458 L38.632481,24.727622 L39.1443033,24.3004981 L39.6561256,23.8733743 L40.1679479,23.4462505 L40.6797702,23.0416068 L41.2138456,22.6369632 L41.7479211,22.2323196 L42.2819965,21.8276759 L42.816072,21.4230323 L43.3501474,21.0408689 L43.8842229,20.6587055 L44.4182983,20.276542 L44.9746269,19.8943786 L45.5309555,19.5122152 L46.0872841,19.152532 L46.6436127,18.7928487 L47.1999413,18.4331655 L47.7562698,18.0734823 L48.3125984,17.713799 L48.8911802,17.376596 L49.4697619,17.039393 L50.0483436,16.70219 L50.6269254,16.364987 L51.2055071,16.0277839 L51.7840888,15.7130611 L52.3626706,15.3983383 L52.9412523,15.0836155 L53.5420872,14.7688926 L54.1429221,14.4541698 L54.7437569,14.1619272 L55.3445918,13.8696846 L55.9454267,13.577442 L56.5462616,13.2851993 L57.1470964,12.9929567 L57.7479313,12.7231943 L58.3710193,12.4534319 L58.9941074,12.1836695 L59.6171954,11.913907 L60.2402834,11.6441446 L60.8633714,11.3968624 L61.4864594,11.1495802 L62.1095475,10.902298 L62.7326355,10.6550157 L63.3557235,10.4302137 L63.9788115,10.2054117 L64.6241527,9.98060969 L65.8925819,9.55348586 L66.7159482,9.41860465 L67.4948082,9.55348586 L68.2069088,9.91316909 L68.7854905,10.4751741 L69.163794,11.2170208 L69.2973128,12.026308 L69.163794,12.8131151 L68.8077437,13.5324815 L68.2514151,14.0944866 L67.5170613,14.47665 L66.3153916,14.8812936 L65.7145567,15.0836155 L65.1137218,15.3084175 L64.512887,15.5332195 L63.9120521,15.7580215 L63.3334704,15.9828235 L62.7548886,16.2076255 L62.1763069,16.4549078 L61.5977252,16.70219 L61.0191434,16.9494722 L60.4405617,17.1967544 L59.86198,17.4440366 L59.2833982,17.713799 L58.7048165,17.9835615 L58.1484879,18.2533239 L57.5921593,18.5230863 L57.0358307,18.7928487 L56.4795021,19.0850913 L55.9231735,19.377334 L55.366845,19.6695766 L54.8105164,19.9618192 L54.2541878,20.2540618 L53.6978592,20.5687847 L53.1637837,20.8835075 L52.6297083,21.1982303 L52.0956328,21.5129531 L51.5615574,21.8276759 L51.027482,22.164879 L50.4934065,22.502082 L49.9593311,22.839285 L49.4252556,23.176488 L48.9134333,23.5136911 L48.401611,23.8508941 L47.8897887,24.2105773 L47.3779664,24.5702605 L46.8661441,24.9299438 L46.3543218,25.289627 L45.8424995,25.6493102 L45.3306772,26.0314736 L44.841108,26.4136371 L44.3515389,26.7958005 L43.8619697,27.1779639 L43.3724006,27.5601274 L42.8828314,27.9422908 L42.3932622,28.3469344 L41.9036931,28.751578 L41.4363771,29.1562217 L40.9690611,29.5608653 L40.501745,29.9655089 L40.034429,30.3701526 L39.567113,30.7972764 L39.099797,31.2244002 L38.632481,31.6515241 L38.1874181,32.0786479 L37.7423552,32.5057717 L37.2972924,32.9328955 L36.8522295,33.3824996 L36.4071666,33.8321036 L35.9621037,34.2817076 L35.5170409,34.7313117 L35.0942311,35.1809157 L34.6714214,35.6305197 L34.2486117,36.0801238 L33.825802,36.552208 L33.4029922,37.0242922 L32.9801825,37.4963765 L32.5796259,37.9684607 L32.1790693,38.4405449 L31.7785128,38.9126292 L31.3779562,39.4071936 L30.9773996,39.901758 L30.576843,40.3963225 L30.1985396,40.8908869 L29.8202361,41.3854514 L29.4419327,41.8800158 L29.0636292,42.3745802 L28.6853258,42.8916249 L28.3070224,43.4086695 L27.9509721,43.9257141 L27.5949218,44.4427588 L27.2388715,44.9598034 L26.8828212,45.476848 L26.5267709,45.9938927 L26.1929737,46.5334175 L25.8591766,47.0729424 L25.5253794,47.6124672 L25.1915823,48.151992 L24.8577851,48.6915169 L24.5239879,49.2310417 L24.2124439,49.7705666 L23.8341405,50.4000122 L23.5225965,50.9620172 L23.2110525,51.5240223 L22.8995085,52.0860273 L22.6102176,52.6480324 L22.3209267,53.2100374 L22.0316359,53.7720424 L21.742345,54.3340475 L21.4753073,54.8960525 L20.9189787,56.065023 L20.651941,56.6495083 L20.3849032,57.2339935 L20.1178655,57.8184787 L19.8730809,58.402964 L19.6282964,58.9874492 L19.3835118,59.5719345 L19.1387272,60.1564197 L18.8939426,60.7409049 L18.6714112,61.3253902 L18.4488798,61.9098754 L18.2263483,62.4943607 L18.0038169,63.0788459 L17.8035386,63.6858114 L17.6032603,64.2927768 L17.402982,64.8997422 L17.2027037,65.5067077 L17.0024254,66.1136731 L16.8244003,66.7206386 L16.6463751,67.327604 L16.46835,67.9345695 L16.2903248,68.5415349 L16.1345528,69.1485004 L15.9787808,69.7554658 L15.8230088,70.3624312 L15.6672368,70.9693967 L15.5114648,71.5763621 L15.3779459,72.1833276 L15.2444271,72.790293 L15.1109082,73.3972585 L14.9773894,74.0042239 L14.8438705,74.6111893 L14.7326048,75.2181548 L14.6213391,75.8251202 L14.5100733,76.4320857 L14.3988076,77.0615313 L14.309795,77.690977 L14.2207825,78.3204226 L14.1317699,78.9498683 L14.0427573,79.5793139 L13.9537447,80.2087596 L13.8869853,80.8382052 L13.8202259,81.4676508 L13.7534665,82.0970965 L13.686707,82.7265421 L13.6422007,83.3559878 L13.5976945,83.9854334 L13.5531882,84.6148791 L13.5086819,85.2443247 L13.4641756,85.8737704 L13.4419224,86.503216 L13.4196693,87.1326617 L13.3974162,87.7621073 L13.375163,88.3915529 L13.375163,91.5387812 L13.3974162,92.1682268 L13.4196693,92.7976725 L13.4419224,93.4271181 L13.4641756,94.0565637 L13.5086819,94.6860094 L13.5531882,95.315455 L13.5976945,95.9449007 L13.6422007,96.5743463 L13.686707,97.203792 L13.7534665,97.8332376 L13.8202259,98.4626833 L13.8869853,99.0921289 L13.9537447,99.7215746 L14.0427573,100.35102 L14.1317699,100.980466 L14.2207825,101.609911 L14.309795,102.239357 L14.3988076,102.868803 L14.5100733,103.498248 L14.6213391,104.127694 L14.7326048,104.75714 L14.8438705,105.386585 L14.9773894,106.016031 L15.1109082,106.645477 L15.2444271,107.252442 L15.3779459,107.859408 L15.5114648,108.466373 L15.6672368,109.073338 L15.8230088,109.680304 L15.9787808,110.287269 L16.1345528,110.894235 L16.312578,111.5012 L16.4906031,112.108166 L16.6686283,112.715131 L16.8466534,113.322097 L17.0246786,113.929062 L17.2249569,114.536027 L17.4252351,115.142993 L17.6255134,115.749958 L17.870298,116.177082 L17.870298,116.177082 Z M14.9328831,126.383094 C14.9328831,124.652118 16.3348311,123.235865 18.0483232,123.235865 C19.7618152,123.235865 21.1637633,124.652118 21.1637633,126.383094 C21.1637633,128.114069 19.7618152,129.530322 18.0483232,129.530322 C16.3348311,129.530322 14.9328831,128.114069 14.9328831,126.383094 Z M78.9774303,19.7594974 C78.8884177,19.6246162 78.7326457,19.5346954 78.5546206,19.5571756 L76.7076096,19.7819776 L75.4836867,18.3657249 C75.372421,18.2308437 75.1943959,18.1858833 75.0386239,18.2308437 C74.8828519,18.2758041 74.749333,18.4106853 74.7270799,18.5680467 L74.3710296,20.4114232 L72.6575375,21.1532699 C72.5017655,21.2207105 72.4127529,21.3780719 72.3904998,21.5354333 C72.3904998,21.6927947 72.4795124,21.8726363 72.6130312,21.940077 L74.2375107,22.8617652 L74.4155359,24.727622 C74.437789,24.8849834 74.5490547,25.0423448 74.7048267,25.1097854 C74.8605987,25.177226 75.0386239,25.1322656 75.1498896,25.0198646 L76.5295845,23.7384931 L78.3543423,24.1431367 C78.4211017,24.1656169 78.4878611,24.1656169 78.5546206,24.1431367 C78.6436331,24.1206565 78.7326457,24.0756961 78.777152,23.9857753 C78.8884177,23.8508941 78.9106709,23.6710525 78.8439114,23.5136911 L78.0650514,21.8051957 L79.0219366,20.1866212 C79.0664429,20.0742202 79.0664429,19.8943786 78.9774303,19.7594974 L78.9774303,19.7594974 Z M153.970524,46.4210165 C153.926018,46.2636551 153.792499,46.1512541 153.614474,46.1062937 L151.789716,45.8365313 L150.96635,44.128036 C150.89959,43.9706745 150.743818,43.8807537 150.565793,43.8807537 C150.387768,43.8807537 150.254249,43.9706745 150.165237,44.128036 L149.34187,45.8365313 L147.517113,46.1062937 C147.361341,46.1287739 147.205569,46.2411749 147.161062,46.4210165 C147.116556,46.5783779 147.161062,46.7582195 147.272328,46.8706205 L148.607517,48.1969524 L148.295973,50.0628092 C148.273719,50.2426508 148.340479,50.4000122 148.473998,50.489933 C148.607517,50.5798538 148.785542,50.602334 148.941314,50.5348934 L150.588046,49.6581656 L152.234779,50.5348934 C152.301538,50.5798538 152.368298,50.5798538 152.435057,50.5798538 C152.52407,50.5798538 152.613082,50.5573736 152.702095,50.489933 C152.835614,50.4000122 152.902373,50.2201706 152.88012,50.0628092 L152.568576,48.1969524 L153.903765,46.8706205 C153.970524,46.7582195 154.01503,46.5783779 153.970524,46.4210165 L153.970524,46.4210165 Z M97.225008,165.476164 C97.1805017,165.318803 97.0469829,165.206402 96.8689577,165.183922 L95.0442,164.914159 L94.2208336,163.273105 C94.1540742,163.115743 93.9983022,163.025822 93.8202771,163.025822 C93.6422519,163.025822 93.508733,163.115743 93.4197205,163.273105 L92.5963542,164.914159 L90.7715964,165.183922 C90.6158244,165.206402 90.4600524,165.318803 90.4155461,165.476164 C90.3710398,165.633526 90.4155461,165.813367 90.5268118,165.925768 L91.8620004,167.20714 L91.5504564,169.028036 C91.5282033,169.185398 91.5949627,169.365239 91.7284816,169.45516 C91.8620004,169.545081 92.0400256,169.567561 92.1957976,169.47764 L93.8425302,168.623393 L95.4892628,169.47764 C95.5560223,169.50012 95.6227817,169.522601 95.6895411,169.522601 C95.7785537,169.522601 95.8675663,169.50012 95.9565788,169.43268 C96.0900977,169.342759 96.1568571,169.162917 96.134604,169.005556 L95.82306,167.18466 L97.1582486,165.903288 C97.225008,165.813367 97.2695143,165.633526 97.225008,165.476164 L97.225008,165.476164 Z" id="Shape" fill="#FFFFFF"></path>
                <path d="M29.5041073,109.188545 C29.5041073,109.03184 29.4148945,108.875134 29.2587721,108.785588 L27.6083352,107.934899 L27.363,106.076815 C27.3406968,105.920109 27.2291808,105.763403 27.0730584,105.71863 C26.916936,105.673857 26.7385104,105.696244 26.6269944,105.830563 L25.2888023,107.151369 L23.4599399,106.793185 C23.3038174,106.770798 23.1253918,106.837958 23.036179,106.94989 C22.924663,107.08421 22.924663,107.263302 22.9915726,107.420008 L23.8390943,109.098999 L22.9469662,110.733217 C22.8577534,110.889923 22.8800566,111.069016 22.9692694,111.203335 C23.0584822,111.337654 23.2369078,111.404814 23.3930303,111.382427 L25.2441959,111.091402 L26.5154784,112.456982 C26.5600848,112.501755 26.6269944,112.546528 26.693904,112.568915 C26.7831168,112.591301 26.8723296,112.591301 26.9615424,112.568915 C27.1176648,112.524142 27.2291808,112.389822 27.2737872,112.21073 L27.586032,110.352646 L29.2810753,109.54673 C29.3925913,109.524344 29.5041073,109.367638 29.5041073,109.188545 L29.5041073,109.188545 Z M152.930021,126.672442 C152.885415,126.515736 152.751596,126.403803 152.57317,126.35903 L150.744308,126.090391 L149.919089,124.389013 C149.85218,124.232308 149.696057,124.142761 149.517632,124.142761 C149.339206,124.142761 149.205387,124.232308 149.116174,124.389013 L148.290956,126.090391 L146.462093,126.35903 C146.305971,126.381416 146.149848,126.493349 146.105242,126.672442 C146.060636,126.829147 146.105242,127.00824 146.216758,127.120173 L147.55495,128.440979 L147.242705,130.299063 C147.220402,130.478155 147.287312,130.634861 147.421131,130.724407 C147.55495,130.813953 147.733376,130.83634 147.889498,130.76918 L149.539935,129.896105 L151.190372,130.76918 C151.257281,130.813953 151.324191,130.813953 151.391101,130.813953 C151.480313,130.813953 151.569526,130.791567 151.658739,130.724407 C151.792558,130.634861 151.859468,130.455769 151.837165,130.299063 L151.52492,128.440979 L152.863112,127.120173 C152.930021,127.00824 152.974628,126.829147 152.930021,126.672442 L152.930021,126.672442 Z" id="Shape" fill="#FFFFFF"></path>
                <path d="M53.1775588,106.189581 C51.4818427,82.8501351 68.9075567,62.5403287 92.1120927,60.812312 C115.316629,59.1067371 135.509037,76.6337634 137.227066,99.9732095 C138.922782,123.312656 121.497068,143.622462 98.2925316,145.350479 C75.0656836,147.056054 54.8732749,129.529027 53.1775588,106.189581 L53.1775588,106.189581 Z" id="Path" fill="#F97B6E"></path>
                <path d="M33.330299,126.627907 C32.7504438,126.627907 32.259797,126.157251 32.259797,125.552122 C32.259797,125.260764 32.3713076,124.991818 32.5720268,124.790108 C32.7727459,124.588399 33.0403714,124.453925 33.330299,124.453925 C37.7015156,124.386689 42.741796,124.028094 48.2727231,123.400553 C48.8525784,123.333316 49.3878294,123.759148 49.4770379,124.364277 C49.49934,124.655635 49.4324337,124.924581 49.2540167,125.171115 C49.0755997,125.395237 48.8079741,125.52971 48.5403486,125.574534 C42.8979109,126.202076 37.8130263,126.56067 33.330299,126.627907 C33.3526012,126.627907 33.3526012,126.627907 33.330299,126.627907 L33.330299,126.627907 Z M24.7216786,126.314136 L24.6101679,126.314136 C24.0303127,126.2469 23.5842702,125.709008 23.6511766,125.126291 C23.7180829,124.543574 24.2533339,124.095331 24.8331892,124.162567 C25.4130445,124.229804 25.859087,124.767696 25.7921806,125.350413 C25.7475764,125.910717 25.2792317,126.314136 24.7216786,126.314136 Z M56.9259478,124.431513 C56.3906968,124.431513 55.9446543,124.028094 55.8554458,123.512614 C55.7662373,122.929897 56.1676756,122.369593 56.769833,122.279944 C57.3496882,122.190295 57.9072414,122.616127 57.9964499,123.198843 C58.0410541,123.490202 57.9741477,123.78156 57.7957307,124.005682 C57.6173137,124.229804 57.3719904,124.386689 57.0820627,124.431513 L56.9259478,124.431513 L56.9259478,124.431513 Z M16.4698921,124.050506 C16.269173,124.050506 16.0461517,123.98327 15.8900369,123.871209 C14.7080242,123.109195 13.9274498,122.100646 13.6598243,121.00245 C13.5706158,120.666267 13.5260116,120.307672 13.5260116,119.949077 C13.5483137,118.268164 14.4403987,116.542426 16.3360794,114.570154 C18.0087388,112.844416 20.4619726,110.961793 23.6288744,108.989521 C23.8072914,108.87746 23.9857084,108.832635 24.1864276,108.832635 C24.5655637,108.832635 24.9000956,109.034345 25.1008147,109.348116 C25.2569296,109.59465 25.3015338,109.886008 25.2346275,110.154954 C25.1677211,110.446312 24.9893041,110.670434 24.7439807,110.827319 C21.7331938,112.709943 19.4137727,114.458093 17.8526239,116.07177 C16.4252879,117.528562 15.6224114,118.940529 15.6447135,119.926665 C15.6447135,120.105962 15.6670156,120.262848 15.7116199,120.419733 C15.8677347,121.00245 16.2914751,121.540342 17.0497474,122.03341 C17.2950708,122.190295 17.4511857,122.436829 17.518092,122.728188 C17.5849984,123.019546 17.518092,123.288492 17.3619772,123.535026 C17.1835601,123.871209 16.8490283,124.050506 16.4698921,124.050506 L16.4698921,124.050506 Z M65.4453598,123.019546 C64.9324109,123.019546 64.4863684,122.638539 64.3748578,122.123059 C64.2633471,121.540342 64.6647854,120.980037 65.2446407,120.867977 C70.0172955,120.016314 74.9906695,119.007765 79.9863456,117.864744 C80.053252,117.842332 80.1424605,117.842332 80.231669,117.842332 C80.7223158,117.842332 81.1683583,118.200927 81.2798689,118.693995 C81.3467753,118.985353 81.302171,119.276712 81.1460562,119.523246 C80.9899413,119.76978 80.7446179,119.926665 80.4769924,119.993901 C75.436712,121.136923 70.4410359,122.145471 65.6460789,122.997134 C65.5568704,123.019546 65.489964,123.019546 65.4453598,123.019546 Z M88.6172682,118.044042 C88.1266215,118.044042 87.6805789,117.707859 87.5690683,117.214791 C87.5021619,116.923433 87.5467662,116.654487 87.7028811,116.407953 C87.8589959,116.161419 88.0820172,115.982121 88.3719448,115.914885 C88.4611533,115.892472 88.5503618,115.892472 88.6395703,115.892472 C89.1302171,115.892472 89.5762596,116.228655 89.6877702,116.721723 C89.821583,117.30444 89.464749,117.887156 88.9071958,118.02163 C88.7956852,118.02163 88.7064767,118.044042 88.6172682,118.044042 L88.6172682,118.044042 Z M96.9805653,115.87006 C96.4899185,115.87006 96.0661781,115.533877 95.9323654,115.063222 C95.7762505,114.480505 96.1107824,113.897788 96.6906377,113.740903 C101.597105,112.418584 106.458969,110.984205 111.142415,109.527413 C111.253926,109.505001 111.365436,109.482589 111.454645,109.482589 C111.922989,109.482589 112.34673,109.796359 112.480543,110.244603 C112.569751,110.513549 112.547449,110.804907 112.413636,111.073853 C112.279823,111.3428 112.056802,111.522097 111.789177,111.611746 C107.061126,113.09095 102.176961,114.525329 97.2481908,115.847648 C97.1589823,115.847648 97.0697738,115.87006 96.9805653,115.87006 L96.9805653,115.87006 Z M119.684129,108.967108 C119.215784,108.967108 118.814346,108.67575 118.658231,108.227507 C118.457512,107.667202 118.769742,107.039661 119.327295,106.860363 C119.438806,106.815539 119.550316,106.793127 119.661827,106.793127 C120.130172,106.793127 120.53161,107.084485 120.687725,107.532729 C120.888444,108.093033 120.576214,108.720574 120.018661,108.899872 C119.90715,108.944696 119.79564,108.967108 119.684129,108.967108 Z M31.7468481,106.815539 C31.3454099,106.815539 30.9662737,106.591417 30.7878567,106.21041 C30.654044,105.941464 30.6317418,105.650106 30.7209503,105.38116 C30.8101588,105.112213 31.010878,104.888092 31.2562014,104.753618 C31.4123162,104.686382 31.5684311,104.641558 31.7468481,104.641558 C32.1705885,104.641558 32.5274225,104.865679 32.7058395,105.246686 C32.973465,105.784579 32.7504438,106.434532 32.2151928,106.703478 C32.0590779,106.770715 31.902963,106.815539 31.7468481,106.815539 Z M127.802103,106.075937 C127.35606,106.075937 126.954622,105.784579 126.798507,105.38116 C126.597788,104.820855 126.887716,104.193314 127.422967,103.991604 C132.440945,102.131393 137.124391,100.226358 141.361795,98.3213226 C141.495608,98.254086 141.651723,98.2316738 141.807838,98.2316738 C142.231578,98.2316738 142.610714,98.4782078 142.789131,98.8816271 C143.034455,99.4195194 142.789131,100.069473 142.25388,100.316007 C137.994174,102.221042 133.243821,104.14849 128.203541,106.031113 C128.069728,106.053525 127.935916,106.075937 127.802103,106.075937 Z M39.5525921,103.162354 C39.1288517,103.162354 38.7274134,102.91582 38.5712985,102.5124 C38.4597879,102.243454 38.4597879,101.952096 38.5489964,101.68315 C38.660507,101.414204 38.8612262,101.212494 39.1288517,101.078021 C43.4331619,99.1953976 48.1835146,97.3127744 53.223795,95.4525634 C53.3353056,95.4077391 53.4691184,95.3853269 53.6029311,95.3853269 C54.0489736,95.3853269 54.472714,95.6766852 54.6065268,96.1025167 C54.8072459,96.6628212 54.5173183,97.2903623 53.9597651,97.4920719 C48.964089,99.3298707 44.2583405,101.190082 39.9986346,103.072705 C39.8425197,103.117529 39.7087069,103.162354 39.5525921,103.162354 Z M149.591279,96.6628212 C149.189841,96.6628212 148.810705,96.4386994 148.632288,96.0801045 C148.498475,95.8111583 148.476173,95.5198 148.565382,95.2508538 C148.65459,94.9819076 148.833007,94.7577858 149.100633,94.6233127 C149.256748,94.5560762 149.435165,94.5112518 149.591279,94.5112518 C149.992718,94.5112518 150.371854,94.7353736 150.550271,95.0939685 C150.684084,95.3405025 150.706386,95.6542731 150.617177,95.9232192 C150.527969,96.1921654 150.32725,96.4162872 150.081926,96.5507603 C149.925811,96.6179968 149.747394,96.6628212 149.591279,96.6628212 L149.591279,96.6628212 Z M61.7209048,94.7129615 C61.2525602,94.7129615 60.8511219,94.4216031 60.6950071,93.9733595 C60.6057986,93.7044133 60.6281007,93.413055 60.7619134,93.1441088 C60.8957262,92.8751626 61.1187474,92.6958652 61.3863729,92.6062165 C61.4978836,92.5613921 61.6093942,92.5389799 61.7209048,92.5389799 C62.1892495,92.5389799 62.5906877,92.8303383 62.7468026,93.2785819 C62.8360111,93.5475281 62.813709,93.8388864 62.6798962,94.1078326 C62.5460835,94.3543666 62.3230622,94.5560762 62.0554367,94.6457249 C61.9662282,94.6905493 61.8324155,94.7129615 61.7209048,94.7129615 Z M157.062491,92.3596825 C156.705657,92.3596825 156.348823,92.180385 156.148104,91.8666145 C155.991989,91.6200805 155.947385,91.3287221 155.991989,91.059776 C156.058896,90.7684176 156.215011,90.5218836 156.460334,90.3874106 C159.091985,88.6840848 161.099176,87.0704078 162.437304,85.5912039 C163.663921,84.2688852 164.332984,82.9913909 164.332984,82.0500793 C164.332984,81.8707818 164.310682,81.7138966 164.266078,81.5570113 C164.17687,81.2432408 164.043057,80.9742946 163.797733,80.7053484 C163.418597,80.2571048 163.463201,79.5623272 163.931546,79.1813201 C164.132265,79.0244349 164.377589,78.9347861 164.622912,78.9347861 C164.935142,78.9347861 165.247372,79.0692592 165.448091,79.3157932 C165.894133,79.8312734 166.184061,80.4139901 166.340176,81.019119 C166.429384,81.3553017 166.473988,81.7138966 166.473988,82.0724915 C166.451686,83.6637563 165.671112,85.2550211 164.020755,87.0704078 C162.526512,88.6840848 160.452415,90.3649984 157.642347,92.2027972 C157.486232,92.2924459 157.285513,92.3596825 157.062491,92.3596825 L157.062491,92.3596825 Z M69.9503891,92.0683241 C69.4820445,92.0683241 69.0583041,91.7545536 68.9244914,91.30631 C68.8352829,91.0373638 68.857585,90.7460054 69.0136999,90.4770593 C69.1475126,90.2305253 69.3705339,90.0288157 69.6604615,89.9391669 C74.3885121,88.4823752 79.2949797,87.0704078 84.2237495,85.7705013 C84.312958,85.7480891 84.4021665,85.7256769 84.5136771,85.7256769 C85.0043239,85.7256769 85.4280643,86.0618597 85.561877,86.5325154 C85.7179919,87.1152322 85.38346,87.6979489 84.8036048,87.8548341 C79.9194393,89.1547406 75.0352738,90.566708 70.3295253,92.0010876 C70.1511083,92.0459119 70.0395977,92.0683241 69.9503891,92.0683241 L69.9503891,92.0683241 Z M92.8100678,85.7705013 C92.3194211,85.7705013 91.8733785,85.4343186 91.7618679,84.9412506 C91.6949615,84.6498923 91.7395658,84.3809461 91.8956807,84.1344121 C92.0517955,83.8878781 92.2748168,83.7085807 92.5647444,83.6413441 C92.6539529,83.6189319 92.7431614,83.6189319 92.8323699,83.6189319 C93.3230167,83.6189319 93.7690592,83.9551147 93.8805698,84.4481826 C94.0143826,85.0308993 93.6575486,85.613616 93.0999954,85.7480891 C92.9884848,85.7480891 92.8992763,85.7705013 92.8100678,85.7705013 L92.8100678,85.7705013 Z M101.217969,83.8206416 C100.70502,83.8206416 100.28128,83.4620467 100.169769,82.9689787 C100.035956,82.386262 100.415093,81.8035453 100.994948,81.6690722 C106.05753,80.5484632 111.053206,79.5623272 115.848163,78.7106643 C115.91507,78.7106643 115.981976,78.6882522 116.02658,78.6882522 C116.539529,78.6882522 116.985572,79.0692592 117.097083,79.5847394 C117.141687,79.8760977 117.07478,80.1674561 116.918666,80.3915779 C116.740249,80.6381119 116.494925,80.7949972 116.2273,80.8398215 C111.476947,81.6690722 106.503573,82.6552082 101.463293,83.7758172 C101.374084,83.7982294 101.284876,83.8206416 101.217969,83.8206416 L101.217969,83.8206416 Z M124.52369,79.4950907 C123.988439,79.4950907 123.542397,79.0916714 123.453188,78.5761913 C123.36398,77.9934745 123.78772,77.43317 124.367575,77.3435213 L124.52369,77.3435213 C125.058941,77.3435213 125.504984,77.7469406 125.594192,78.2624207 C125.638797,78.5537791 125.57189,78.8451374 125.393473,79.0692592 C125.215056,79.293381 124.969733,79.4502663 124.679805,79.4950907 L124.52369,79.4950907 Z M133.087707,78.419306 C132.530153,78.419306 132.084111,77.9934745 132.017204,77.4555822 C131.994902,77.1642239 132.061809,76.8952777 132.240226,76.6711559 C132.418643,76.4470341 132.686268,76.312561 132.976196,76.2677366 C138.640936,75.6626077 143.748123,75.3488372 148.141641,75.3488372 C148.743799,75.3488372 149.212143,75.8419052 149.212143,76.4246219 C149.212143,77.0297508 148.721497,77.5004066 148.141641,77.5004066 C143.815029,77.5004066 138.797051,77.8141771 133.199217,78.419306 L133.087707,78.419306 Z M156.750262,78.0158867 L156.594147,78.0158867 C156.014292,77.926238 155.590551,77.3883457 155.67976,76.7832168 C155.746666,76.2453244 156.215011,75.8419052 156.750262,75.8419052 L156.906377,75.8419052 C157.196304,75.8867295 157.441628,76.0436148 157.620045,76.2677366 C157.798462,76.4918584 157.865368,76.7832168 157.820764,77.0745751 C157.731555,77.6124675 157.285513,78.0158867 156.750262,78.0158867 Z" id="Shape" fill="#8497B0"></path>
                <path d="M141.530807,92.8653198 C141.113984,87.1061939 145.413846,82.0972989 151.139682,81.6559866 C156.865518,81.2367399 161.84546,85.5616007 162.284221,91.3207267 C162.701045,97.0798526 158.401183,102.088748 152.675347,102.53006 C146.927573,102.949307 141.947631,98.6244458 141.530807,92.8653198 L141.530807,92.8653198 Z" id="Path" fill="#FACC7E"></path>
                <path d="M160.040378,86.0948653 L160.326215,86.5093254 C160.700002,87.1079899 161.007827,87.7296799 161.249689,88.3974211 L161.271676,88.4895234 L161.227701,88.5125489 L161.117764,88.6046512 L161.007827,88.6967534 L160.897889,88.7888556 L160.787952,88.8809579 L160.678015,88.9730601 L160.568077,89.0651623 L160.414165,89.1572646 L160.28224,89.2493668 L160.150316,89.341469 L160.018391,89.4335713 L159.886466,89.5256735 L159.754541,89.5947502 L159.622616,89.6638268 L159.490692,89.7329035 L159.358767,89.8019802 L159.226842,89.8710569 L159.094917,89.9401335 L158.962993,90.0092102 L158.831068,90.0782869 L158.699143,90.1473636 L158.567218,90.2164402 L158.435293,90.2855169 L158.303369,90.3545936 L158.171444,90.4236703 L158.039519,90.4927469 L157.995544,90.5387981 L157.863619,90.6078747 L157.731695,90.6769514 L157.59977,90.7230025 L157.467845,90.7690536 L157.33592,90.8151048 L157.203995,90.8611559 L157.072071,90.907207 L156.940146,90.9532581 L156.808221,90.9993092 L156.676296,91.0453603 L156.544372,91.0914115 L156.412447,91.1374626 L156.280522,91.1835137 L156.148597,91.2295648 L156.016672,91.2756159 L155.884748,91.3216671 L155.752823,91.3677182 L155.620898,91.4137693 L155.488973,91.4598204 L155.357048,91.482846 L155.225124,91.5058715 L155.093199,91.5288971 L154.961274,91.5519226 L154.829349,91.5749482 L154.697425,91.5979738 L154.5655,91.6209993 L154.411587,91.6440249 L154.279663,91.6670504 L154.12575,91.690076 L153.971838,91.7131015 L153.817926,91.7361271 L153.664014,91.7591527 L153.510101,91.7821782 L153.356189,91.8052038 L153.202277,91.8282293 L150.739681,91.8282293 L150.585769,91.8052038 L150.431856,91.7821782 L150.277944,91.7591527 L150.124032,91.7361271 L149.97012,91.7131015 L149.816207,91.690076 L149.662295,91.6670504 L149.508383,91.6440249 L149.354471,91.6209993 L149.068634,91.5749482 L148.672859,91.4367948 L148.365035,91.1835137 L148.14516,90.8381303 L148.035223,90.4466958 L148.035223,90.0092102 L148.167148,89.5947502 L148.40901,89.2723924 L148.738822,89.0421368 L149.112609,88.927009 L149.53037,88.927009 L149.772233,88.9730601 L149.904157,88.9960857 L150.036082,89.0191112 L150.168007,89.0421368 L150.299932,89.0651623 L150.431856,89.0881879 L150.563781,89.1112134 L150.695706,89.134239 L150.827631,89.1572646 L153.158302,89.1572646 L153.268239,89.134239 L153.378177,89.1112134 L153.488114,89.0881879 L153.598051,89.0651623 L153.707989,89.0421368 L153.817926,89.0191112 L153.927863,88.9960857 L154.037801,88.9730601 L154.147738,88.9500345 L154.257675,88.927009 L154.367613,88.9039834 L154.47755,88.8809579 L154.587487,88.8579323 L154.697425,88.8349067 L154.807362,88.8118812 L154.917299,88.7888556 L155.027236,88.7658301 L155.137174,88.7428045 L155.247111,88.719779 L155.357048,88.6737278 L155.466986,88.6276767 L155.576923,88.5816256 L155.68686,88.5355745 L155.796798,88.4895234 L155.906735,88.4434723 L156.016672,88.3974211 L156.12661,88.35137 L156.236547,88.3053189 L156.346484,88.2592678 L156.456422,88.2132167 L156.566359,88.1671656 L156.676296,88.1211144 L156.786234,88.0750633 L156.896171,88.0290122 L157.006108,87.9829611 L157.116046,87.93691 L157.225983,87.8908589 L157.33592,87.8448077 L157.445858,87.7987566 L157.555795,87.7527055 L157.665732,87.6836288 L157.77567,87.6145522 L157.885607,87.5454755 L157.995544,87.4763988 L158.105481,87.4073221 L158.215419,87.3382455 L158.325356,87.2691688 L158.435293,87.2000921 L158.545231,87.1310154 L158.655168,87.0619388 L158.765105,86.9928621 L158.875043,86.9237854 L158.98498,86.8547087 L159.094917,86.7856321 L159.204855,86.7165554 L159.292805,86.6474787 L159.380754,86.578402 L159.468704,86.5093254 L159.556654,86.4402487 L159.644604,86.371172 L159.732554,86.3020953 L159.820504,86.2099931 L160.040378,86.0948653 L160.040378,86.0948653 Z M141.131159,91.897306 L141.241096,91.9203316 L141.614883,92.1275616 L141.812771,92.2887405 L141.922708,92.3578172 L142.032645,92.4268939 L142.142583,92.4959705 L142.25252,92.5650472 L142.362457,92.6341239 L142.472394,92.7032006 L142.582332,92.7722772 L142.692269,92.8413539 L142.802206,92.9104306 L142.912144,92.9795073 L143.022081,93.0485839 L143.132018,93.1176606 L143.241956,93.1867373 L143.351893,93.255814 L143.46183,93.3248906 L143.571768,93.3939673 L143.681705,93.4400184 L143.791642,93.4860695 L143.90158,93.5321207 L144.011517,93.5781718 L144.121454,93.6242229 L144.231392,93.670274 L144.341329,93.7163251 L144.451266,93.7623762 L144.561204,93.8084274 L144.671141,93.8544785 L144.781078,93.9005296 L144.891016,93.9465807 L145.000953,93.9926318 L145.11089,94.0386829 L145.220827,94.0847341 L145.330765,94.1307852 L145.440702,94.1768363 L145.550639,94.2228874 L145.660577,94.2689385 L145.770514,94.3149896 L145.880451,94.3380152 L145.990389,94.3610408 L146.100326,94.3840663 L146.210263,94.4070919 L146.320201,94.4301174 L146.430138,94.453143 L146.540075,94.4761685 L146.650013,94.4991941 L146.75995,94.5222197 L146.869887,94.5452452 L146.979825,94.5682708 L147.089762,94.5912963 L147.199699,94.6143219 L147.309637,94.6373475 L147.419574,94.660373 L147.529511,94.6833986 L147.639449,94.7064241 L147.749386,94.7294497 L147.859323,94.7524752 L149.948132,94.7524752 L150.05807,94.7294497 L150.168007,94.7064241 L150.277944,94.6833986 L150.387882,94.660373 L150.497819,94.6373475 L150.607756,94.6143219 L150.717694,94.5912963 L150.827631,94.5682708 L150.937568,94.5452452 L151.047505,94.5222197 L151.157443,94.4991941 L151.26738,94.4761685 L151.377317,94.453143 L151.487255,94.4301174 L151.597192,94.4070919 L151.707129,94.3840663 L151.817067,94.3610408 L151.927004,94.3380152 L152.036941,94.3149896 L152.146879,94.2689385 L152.256816,94.2228874 L152.366753,94.1768363 L152.476691,94.1307852 L152.586628,94.0847341 L152.784515,94.0386829 L152.982402,94.0156574 L153.18029,94.0386829 L153.378177,94.0847341 L153.554076,94.1538107 L153.729976,94.2689385 L153.883888,94.4070919 L154.015813,94.5682708 L154.12575,94.7524752 L154.2137,94.9597053 L154.257675,95.1669353 L154.279663,95.3741653 L154.257675,95.5813953 L154.2137,95.7886254 L154.147738,95.9728298 L154.037801,96.1570343 L153.905876,96.3182132 L153.751964,96.4563666 L153.576064,96.5714944 L153.378177,96.6635966 L153.224264,96.7096477 L153.09234,96.7556988 L152.960415,96.8017499 L152.82849,96.8478011 L152.696565,96.8938522 L152.564641,96.9399033 L152.432716,96.9859544 L152.300791,97.0320055 L152.168866,97.0780566 L152.014954,97.1010822 L151.861042,97.1241078 L151.707129,97.1471333 L151.553217,97.1701589 L151.399305,97.1931844 L151.245393,97.21621 L151.09148,97.2392356 L150.937568,97.2622611 L150.783656,97.2852867 L150.629744,97.3083122 L150.475831,97.3313378 L150.321919,97.3543633 L150.168007,97.3773889 L150.014095,97.4004145 L149.860182,97.42344 L149.70627,97.4464656 L147.243674,97.4464656 L147.089762,97.42344 L146.93585,97.4004145 L146.781937,97.3773889 L146.628025,97.3543633 L146.474113,97.3313378 L146.320201,97.3083122 L146.166288,97.2852867 L146.034364,97.2622611 L145.902439,97.2392356 L145.770514,97.21621 L145.638589,97.1931844 L145.506665,97.1701589 L145.37474,97.1471333 L145.242815,97.1241078 L145.11089,97.1010822 L144.978965,97.0780566 L144.847041,97.0320055 L144.715116,96.9859544 L144.583191,96.9399033 L144.451266,96.8938522 L144.319341,96.8478011 L144.187417,96.8017499 L144.055492,96.7556988 L143.923567,96.7096477 L143.791642,96.6635966 L143.659718,96.6175455 L143.527793,96.5714944 L143.395868,96.5254432 L143.263943,96.4793921 L143.132018,96.433341 L143.000094,96.3872899 L142.868169,96.3412388 L142.736244,96.2951877 L142.604319,96.226111 L142.472394,96.1570343 L142.34047,96.0879576 L142.208545,96.018881 L142.07662,95.9498043 L141.944695,95.8807276 L141.812771,95.8116509 L141.680846,95.7425743 L141.548921,95.6734976 L141.416996,95.6044209 L141.285071,95.5353442 L141.153147,95.4662676 L141.021222,95.3971909 L140.889297,95.3281142 L140.823335,95.2820631 L140.625448,94.3610408 C140.559485,93.9926318 140.51551,93.6242229 140.493523,93.255814 C140.471535,92.887405 140.449548,92.4959705 140.471535,92.1275616 L141.131159,91.897306 L141.131159,91.897306 Z M160.875902,97.2622611 L160.590065,97.8148745 C159.600629,99.6338936 158.105481,101.130555 156.302509,102.120654 L155.796798,102.35091 L155.77481,102.35091 L155.642885,102.373935 L155.488973,102.396961 L155.335061,102.419986 L155.203136,102.443012 L155.049224,102.466037 L154.895312,102.489063 L154.741399,102.512088 L154.587487,102.535114 L154.433575,102.55814 L151.970979,102.55814 L151.817067,102.535114 L151.663154,102.512088 L151.509242,102.489063 L151.35533,102.466037 L151.201418,102.443012 L151.047505,102.419986 L150.893593,102.396961 L150.739681,102.373935 L150.585769,102.35091 L150.431856,102.327884 L150.277944,102.304858 L150.124032,102.281833 L149.97012,102.258807 L149.816207,102.235782 L149.662295,102.212756 L149.508383,102.166705 L149.354471,102.120654 L149.200559,102.074603 L149.420433,102.051577 L149.288508,102.005526 L149.156584,101.959475 L148.870747,101.867373 L148.49696,101.683168 L148.211123,101.383836 L148.035223,101.015427 L147.969261,100.600967 L148.035223,100.186507 L148.211123,99.7950725 L148.49696,99.4957403 L148.848759,99.3115358 L149.244533,99.2424591 L149.640308,99.3115358 L149.88217,99.3806125 L149.992107,99.4266636 L150.102045,99.4496892 L150.211982,99.4727147 L150.321919,99.4957403 L150.431856,99.5187658 L150.541794,99.5417914 L150.651731,99.5648169 L150.761668,99.5878425 L150.871606,99.6108681 L150.981543,99.6338936 L151.09148,99.6569192 L151.201418,99.6799447 L151.311355,99.7029703 L151.421292,99.7259959 L151.53123,99.7490214 L151.641167,99.772047 L151.751104,99.7950725 L151.861042,99.8180981 L151.970979,99.8411236 L154.169725,99.8411236 L154.279663,99.8180981 L154.3896,99.7950725 L154.499537,99.772047 L154.609475,99.7490214 L154.719412,99.7259959 L154.829349,99.7029703 L154.939287,99.6799447 L155.049224,99.6569192 L155.159161,99.6338936 L155.269099,99.6108681 L155.379036,99.5878425 L155.488973,99.5648169 L155.598911,99.5417914 L155.708848,99.5187658 L155.818785,99.4957403 L155.928723,99.4727147 L156.03866,99.4496892 L156.148597,99.4266636 L156.258534,99.403638 L156.368472,99.3575869 L156.478409,99.3115358 L156.588346,99.2654847 L156.698284,99.2194336 L156.808221,99.1733825 L156.918158,99.1273313 L157.028096,99.0812802 L157.138033,99.0352291 L157.24797,98.989178 L157.357908,98.9431269 L157.467845,98.8970758 L157.577782,98.8510246 L157.68772,98.8049735 L157.797657,98.7589224 L157.907594,98.7128713 L158.017532,98.6668202 L158.127469,98.6207691 L158.237406,98.5747179 L158.347344,98.5286668 L158.457281,98.4826157 L158.567218,98.413539 L158.677156,98.3444624 L158.787093,98.2753857 L158.89703,98.206309 L159.006967,98.1372323 L159.116905,98.0681557 L159.226842,97.999079 L159.336779,97.9300023 L159.446717,97.8609256 L159.556654,97.791849 L159.666591,97.7227723 L159.776529,97.6536956 L159.886466,97.5846189 L159.996403,97.5155423 L160.106341,97.4464656 L160.216278,97.3773889 L160.326215,97.3083122 L160.875902,97.2622611 L160.875902,97.2622611 Z M153.488114,81.6739581 L153.905876,81.7430348 C154.895312,81.9963159 155.86276,82.3877504 156.720271,82.8943127 L156.764246,82.9173382 L156.676296,82.9864149 L156.544372,83.0554916 L156.412447,83.1245683 L156.280522,83.1936449 L156.148597,83.2627216 L156.016672,83.3317983 L155.884748,83.400875 L155.752823,83.4699516 L155.620898,83.5390283 L155.488973,83.608105 L155.357048,83.6771817 L155.225124,83.7462583 L155.093199,83.815335 L154.961274,83.8844117 L154.829349,83.9534884 L154.697425,84.022565 L154.5655,84.0916417 L154.433575,84.1376928 L154.30165,84.183744 L154.169725,84.2297951 L154.037801,84.2758462 L153.905876,84.3218973 L153.773951,84.3679484 L153.642026,84.4139995 L153.510101,84.4600507 L153.378177,84.5061018 L153.246252,84.5521529 L153.114327,84.598204 L152.982402,84.6442551 L152.850478,84.6903062 L152.718553,84.7363574 L152.586628,84.7824085 L152.454703,84.8284596 L152.322778,84.8514851 L152.190854,84.8745107 L152.058929,84.8975363 L151.927004,84.9205618 L151.795079,84.9435874 L151.663154,84.9666129 L151.53123,84.9896385 L151.399305,85.0126641 L151.26738,85.0356896 L151.135455,85.0587152 L150.981543,85.0817407 L150.827631,85.1047663 L150.673719,85.1277918 L150.519806,85.1508174 L150.365894,85.173843 L150.211982,85.1968685 L147.749386,85.1968685 L147.595474,85.173843 L147.441561,85.1508174 L147.287649,85.1277918 L147.133737,85.1047663 L146.979825,85.0817407 L146.825912,85.0587152 L146.672,85.0356896 L146.518088,85.0126641 L146.364176,84.9896385 L146.210263,84.9666129 L146.078339,84.9435874 L145.924426,84.9205618 L145.792502,84.8975363 L145.660577,84.8745107 L145.528652,84.8514851 L145.396727,84.8284596 L145.264802,84.7824085 L145.132878,84.7363574 L145.000953,84.6903062 L144.869028,84.6442551 L144.737103,84.598204 L144.605179,84.5521529 L144.473254,84.5061018 L144.341329,84.4600507 L144.297354,84.4370251 L144.319341,84.4139995 C145.044928,83.7002072 145.858464,83.0785172 146.781937,82.5949804 L147.199699,82.410776 L147.243674,82.410776 L147.353612,82.4338015 L147.463549,82.4568271 L147.573486,82.4798526 L147.683423,82.5028782 L149.772233,82.5028782 L149.88217,82.4798526 L149.992107,82.4568271 L150.102045,82.4338015 L150.211982,82.410776 L150.321919,82.3877504 L150.431856,82.3647248 L150.541794,82.3416993 L150.651731,82.3186737 L150.761668,82.2956482 L150.871606,82.2726226 L150.981543,82.2495971 L151.09148,82.2265715 L151.201418,82.2035459 L151.311355,82.1805204 L151.421292,82.1574948 L151.53123,82.1344693 L151.641167,82.1114437 L151.751104,82.0884181 L151.861042,82.0653926 L151.970979,82.042367 L152.080916,81.9963159 L152.190854,81.9502648 L152.300791,81.9042137 L152.410728,81.8581626 L152.520666,81.8121114 L152.630603,81.7660603 L152.74054,81.7200092 L152.850478,81.6739581 L152.960415,81.627907 L153.488114,81.6739581 L153.488114,81.6739581 Z" id="Shape" fill="#F6A824"></path>
                <path d="M43.0851536,136.046512 C42.4858182,136.046512 42.0196684,135.550512 42.0196684,134.964331 C42.0196684,134.355605 42.5080158,133.882151 43.0851536,133.882151 C43.684489,133.882151 44.1506388,134.37815 44.1506388,134.964331 C44.1506388,135.550512 43.6622914,136.046512 43.0851536,136.046512 Z M51.6534303,135.821057 C51.0762925,135.821057 50.6101427,135.370149 50.5879451,134.783968 C50.5657475,134.490877 50.6767356,134.220332 50.8543164,133.994878 C51.0540949,133.769423 51.2982686,133.656696 51.5868375,133.634151 C56.314928,133.386151 61.3093898,132.912697 66.4592349,132.25888 C67.0363727,132.191244 67.5913129,132.619607 67.6579057,133.205788 C67.7244985,133.791969 67.3249416,134.355605 66.7256062,134.423241 C61.5313659,135.099604 56.4703113,135.573058 51.6978255,135.821057 L51.6534303,135.821057 Z M34.4946793,135.730876 L34.4058889,135.730876 C28.4791275,135.279967 23.4180729,134.333059 19.4003058,132.935243 C18.8453656,132.732334 18.5345991,132.123607 18.7343776,131.559972 C18.8897608,131.109063 19.2893178,130.815972 19.7554676,130.815972 C19.8664556,130.815972 19.9996413,130.838518 20.1106293,130.883609 C23.9508155,132.213789 28.8342893,133.115606 34.5834697,133.566515 C35.1828051,133.611605 35.6045597,134.13015 35.5823621,134.738877 C35.5379669,135.279967 35.0496195,135.730876 34.4946793,135.730876 L34.4946793,135.730876 Z M75.0941044,133.183242 C74.5613618,133.183242 74.1174097,132.79997 74.0286192,132.281425 C73.9398288,131.695244 74.3171881,131.131608 74.9165235,131.041427 C74.9831164,131.041427 75.0275116,131.018881 75.0941044,131.018881 C75.626847,131.018881 76.0707992,131.402154 76.1595896,131.943244 C76.24838,132.529425 75.8488231,133.093061 75.2716853,133.183242 C75.2050924,133.160697 75.1606972,133.183242 75.0941044,133.183242 Z M83.5513931,131.627608 C83.0408481,131.627608 82.5968959,131.266881 82.5081055,130.748336 C82.4637103,130.455246 82.5081055,130.162155 82.6634887,129.936701 C82.818872,129.688701 83.0630457,129.530883 83.3516146,129.485792 C88.1684955,128.516339 93.0741669,127.411613 97.9576407,126.171614 C98.0464311,126.149069 98.1352216,126.149069 98.224012,126.149069 C98.7123594,126.149069 99.1563115,126.48725 99.2672996,126.98325 C99.3338924,127.27634 99.2894972,127.546886 99.1563115,127.817431 C99.0009283,128.06543 98.7789522,128.245794 98.4903833,128.31343 C93.5847119,129.575974 88.6346453,130.703245 83.7733691,131.672699 C83.6845787,131.627608 83.6179859,131.627608 83.5513931,131.627608 L83.5513931,131.627608 Z M12.3192689,128.809429 C12.0528976,128.809429 11.7865263,128.696702 11.5867478,128.516339 C11.1649933,128.110521 11.1427956,127.411613 11.5423526,126.98325 C11.7421311,126.757796 12.0307,126.645068 12.3192689,126.645068 C12.5856402,126.645068 12.8520115,126.757796 13.0517899,126.938159 C13.4735445,127.343977 13.4957421,128.042885 13.0961852,128.471248 C12.8964067,128.674157 12.6078378,128.809429 12.3192689,128.809429 Z M106.50372,126.058887 C106.015372,126.058887 105.593618,125.720706 105.460432,125.269797 C105.393839,124.999252 105.416037,124.706162 105.549223,124.435617 C105.682408,124.187617 105.926582,124.007253 106.192953,123.917072 C106.281744,123.894526 106.392732,123.871981 106.481522,123.871981 C106.947672,123.871981 107.391624,124.187617 107.502612,124.661071 C107.657995,125.247252 107.325031,125.833433 106.770091,126.013796 C106.681301,126.036342 106.59251,126.058887 106.50372,126.058887 L106.50372,126.058887 Z M9.6555559,124.458162 C9.16720853,124.458162 8.74545397,124.119981 8.61226833,123.646527 C8.41248985,122.879982 8.32369942,122.090892 8.32369942,121.301802 C8.32369942,119.385441 8.87863962,117.378898 9.96632242,115.304718 C10.9874124,113.343266 12.5190473,111.291632 14.4946345,109.194908 C14.6944129,108.969453 14.9829818,108.856726 15.2715507,108.856726 C15.5601196,108.856726 15.8264909,108.969453 16.0262694,109.172362 C16.448024,109.57818 16.4702216,110.277088 16.048467,110.705451 C12.3858617,114.560719 10.4546698,118.213079 10.4768674,121.301802 C10.4768674,121.910529 10.5434602,122.519255 10.6988435,123.105436 C10.8542267,123.691617 10.499065,124.277799 9.9219272,124.435617 C9.83313677,124.435617 9.74434634,124.458162 9.6555559,124.458162 L9.6555559,124.458162 Z M114.716835,123.556345 C114.250685,123.556345 113.82893,123.240709 113.695745,122.7898 C113.606954,122.519255 113.629152,122.226165 113.762338,121.95562 C113.895523,121.70762 114.117499,121.504711 114.383871,121.414529 C119.222949,119.858895 123.995435,118.190533 128.523747,116.454535 C128.656933,116.409444 128.767921,116.386899 128.901106,116.386899 C129.345058,116.386899 129.744615,116.67999 129.899999,117.085807 C130.099777,117.649443 129.833406,118.280715 129.278466,118.483624 C124.683561,120.242167 119.888877,121.933074 115.027601,123.488709 C114.938811,123.533799 114.827823,123.556345 114.716835,123.556345 L114.716835,123.556345 Z M136.892245,115.349809 C136.470491,115.349809 136.070934,115.079264 135.893353,114.673446 C135.782365,114.402901 135.782365,114.109811 135.893353,113.839266 C136.004341,113.568721 136.204119,113.365812 136.470491,113.253085 C136.603676,113.207994 136.736862,113.162903 136.892245,113.162903 C137.336197,113.162903 137.713557,113.433448 137.891138,113.839266 C138.113114,114.402901 137.86894,115.034173 137.314,115.259628 C137.180814,115.304718 137.025431,115.349809 136.892245,115.349809 L136.892245,115.349809 Z M144.728001,111.787632 C144.306246,111.787632 143.928887,111.539632 143.751306,111.15636 C143.640318,110.885815 143.61812,110.592724 143.706911,110.322179 C143.795701,110.051634 143.99548,109.82618 144.261851,109.713452 C149.056534,107.413819 153.496056,105.024004 157.44723,102.634188 C157.624811,102.544007 157.802392,102.47637 158.00217,102.47637 C158.37953,102.47637 158.734691,102.679279 158.93447,103.017461 C159.245236,103.536005 159.067656,104.212368 158.557111,104.505459 C154.561541,106.940365 150.055427,109.352726 145.194151,111.674905 C145.038767,111.765086 144.883384,111.787632 144.728001,111.787632 L144.728001,111.787632 Z M21.7532523,105.317094 C21.4202882,105.317094 21.1095217,105.159276 20.8875456,104.888731 C20.7099647,104.663277 20.6433719,104.370186 20.6877671,104.077096 C20.7321623,103.784005 20.865348,103.536005 21.1095217,103.355642 C21.2871025,103.220369 21.5090786,103.130188 21.7532523,103.130188 C22.0862164,103.130188 22.3969829,103.288006 22.618959,103.558551 C22.7965399,103.784005 22.8631327,104.077096 22.8187375,104.370186 C22.7743423,104.663277 22.6411566,104.911276 22.3969829,105.09164 C22.1972044,105.226912 21.9752284,105.317094 21.7532523,105.317094 Z M28.8342893,100.424736 C28.4569299,100.424736 28.1239658,100.221828 27.9241873,99.9061916 C27.7688041,99.6581919 27.7244088,99.3651013 27.7910017,99.0720108 C27.8575945,98.7789202 28.0351754,98.5534659 28.279349,98.3956479 C32.2305233,95.9156509 36.6922425,93.4581994 41.5757163,91.0683841 C41.7310995,91.0007478 41.8864828,90.9556569 42.041866,90.9556569 C42.4636206,90.9556569 42.8187823,91.1811112 43.0185608,91.5643835 C43.2849321,92.1054737 43.0407584,92.7592911 42.5080158,93.0298362 C37.7133325,95.3971061 33.2960085,97.8094668 29.4114271,100.266918 C29.2338462,100.3571 29.0340677,100.424736 28.8342893,100.424736 Z M165.194195,99.9061916 C164.861231,99.9061916 164.528267,99.7258282 164.328489,99.455283 C164.150908,99.2298288 164.106513,98.9367382 164.150908,98.6436476 C164.195303,98.3505571 164.350686,98.1025574 164.572662,97.922194 C164.750243,97.7869214 164.972219,97.7192851 165.194195,97.7192851 C165.52716,97.7192851 165.860124,97.8996485 166.059902,98.1701937 C166.415064,98.6661931 166.304076,99.3425559 165.815728,99.6807373 C165.638148,99.8385553 165.416172,99.9061916 165.194195,99.9061916 Z M171.83128,94.3825619 C171.542711,94.3825619 171.254142,94.2698347 171.054364,94.0443805 C170.654807,93.6160173 170.654807,92.9171091 171.098759,92.5112914 C173.340718,90.3469304 175.049933,88.2276602 176.182011,86.2211172 C177.314089,84.259665 177.86903,82.3883945 177.86903,80.6974875 L177.86903,80.4043969 C177.846832,79.7956704 178.312982,79.299671 178.89012,79.2771256 C179.489455,79.2545801 179.977802,79.7280341 180,80.3142152 L180,80.674942 C180,82.7716668 179.334072,84.9811187 178.024413,87.3032977 C176.781347,89.4676587 174.938945,91.7447469 172.563801,94.0669259 C172.364023,94.2698347 172.097652,94.3825619 171.83128,94.3825619 L171.83128,94.3825619 Z M49.8332265,89.5127496 C49.4114719,89.5127496 49.011915,89.2647499 48.8565317,88.8589322 C48.7455437,88.588387 48.7455437,88.2952965 48.8565317,88.0247514 C48.9675197,87.7542062 49.1672982,87.5512974 49.4336695,87.4160248 C49.5668552,87.3483885 49.7222384,87.3258431 49.8554241,87.3258431 C50.2771786,87.3258431 50.6767356,87.5738428 50.8321188,87.9796605 C51.0762925,88.5207508 50.8099212,89.1745682 50.2771786,89.4225679 C50.1217954,89.4902041 49.9886097,89.5127496 49.8332265,89.5127496 Z M57.8021677,86.2211172 C57.3582156,86.2211172 56.9586586,85.950572 56.8032754,85.5222089 C56.5812993,84.9585732 56.8698682,84.3273013 57.4248084,84.101847 C61.9753181,82.3207582 66.7700014,80.6073058 71.6534752,79.0065804 C71.7644632,78.984035 71.8754512,78.9614896 71.9864393,78.9614896 C72.452589,78.9614896 72.8743436,79.2771256 73.0075292,79.7280341 C73.0963197,79.9985792 73.0741221,80.2916698 72.9409364,80.5622149 C72.8077508,80.8102146 72.5857747,81.0131235 72.3194034,81.1033052 C67.4803248,82.6814851 62.7300367,84.3949376 58.2017247,86.1534809 C58.0463414,86.1985717 57.9131558,86.2211172 57.8021677,86.2211172 L57.8021677,86.2211172 Z M80.1773566,78.6007627 C79.7112069,78.6007627 79.2894523,78.2851267 79.1562667,77.8116728 C79.0674762,77.5411276 79.1118715,77.2480371 79.2450571,76.977492 C79.3782428,76.7294923 79.6002188,76.5491288 79.8887877,76.4589471 C79.9775782,76.4364017 80.0885662,76.4138563 80.1773566,76.4138563 C80.6435064,76.4138563 81.0874586,76.7294923 81.1984466,77.2029462 C81.287237,77.4734914 81.2428418,77.7665819 81.1096562,78.037127 C80.9764705,78.2851267 80.7544945,78.4654902 80.4659256,78.5556719 C80.3771351,78.5782173 80.2661471,78.6007627 80.1773566,78.6007627 Z M88.4570644,76.3011291 C87.9687171,76.3011291 87.5469625,75.9629477 87.4137769,75.4894938 C87.2583936,74.9033126 87.6135553,74.3171315 88.1906931,74.1593135 C93.0963645,72.8742242 98.0242335,71.7244074 102.88551,70.7098632 C102.952102,70.6873177 103.018695,70.6873177 103.107486,70.6873177 C103.618031,70.6873177 104.061983,71.0480446 104.150773,71.5665894 C104.217366,71.85968 104.150773,72.1527705 103.99539,72.3782248 C103.840007,72.6262245 103.595833,72.7840425 103.307264,72.8516788 C98.4903833,73.8436776 93.5847119,74.9934944 88.7234357,76.2560383 C88.6346453,76.3011291 88.5458549,76.3011291 88.4570644,76.3011291 Z M174.672574,74.2494953 C174.450598,74.2494953 174.228622,74.181859 174.051041,74.0465864 C173.829065,73.866223 173.673682,73.6182233 173.629286,73.3476782 C173.584891,73.0545876 173.651484,72.761497 173.829065,72.5360428 C174.028843,72.2429522 174.361808,72.0851342 174.694772,72.0851342 C174.916748,72.0851342 175.138724,72.1527705 175.316305,72.2880431 C175.782454,72.6487699 175.893443,73.3251327 175.560478,73.8211321 C175.3607,74.0691318 175.027736,74.2494953 174.672574,74.2494953 L174.672574,74.2494953 Z M111.520379,71.2734988 C110.987637,71.2734988 110.543684,70.8902266 110.454894,70.3716817 C110.410499,70.0785912 110.477092,69.7855006 110.632475,69.5600464 C110.787858,69.3345921 111.054229,69.1542287 111.320601,69.1091378 C111.387194,69.1091378 111.431589,69.0865924 111.498182,69.0865924 C112.030924,69.0865924 112.474876,69.4698647 112.563667,69.9884095 C112.674655,70.5745906 112.275098,71.1382263 111.69796,71.2509534 C111.631367,71.2734988 111.586972,71.2734988 111.520379,71.2734988 Z M166.903411,70.6647723 C166.792423,70.6647723 166.703633,70.6422269 166.614842,70.6196814 C162.641471,69.4473192 157.735799,68.6807747 152.031014,68.3200479 C151.431678,68.274957 150.987726,67.7564122 151.032122,67.1702311 C151.076517,66.5615045 151.587062,66.110596 152.1642,66.1556868 C158.024368,66.5164137 163.085423,67.3055036 167.214178,68.5229567 C167.480549,68.6131384 167.724723,68.7935018 167.857908,69.0415015 C167.991094,69.2895012 168.035489,69.5825918 167.946699,69.8756823 C167.813513,70.3265909 167.391759,70.6647723 166.903411,70.6647723 L166.903411,70.6647723 Z M119.999865,69.9658641 C119.467123,69.9658641 119.000973,69.5600464 118.93438,69.0189561 C118.84559,68.432775 119.267344,67.8691393 119.844482,67.801503 C125.016525,67.1025948 130.07758,66.58405 134.872263,66.268414 C135.449401,66.2233231 135.982143,66.6967771 136.004341,67.2829582 C136.026538,67.5760488 135.937748,67.8465939 135.73797,68.0720482 C135.538191,68.2975024 135.294017,68.4102296 135.005449,68.432775 C130.277358,68.7258655 125.282896,69.2444104 120.133051,69.9433186 C120.088656,69.9658641 120.044261,69.9658641 119.999865,69.9658641 L119.999865,69.9658641 Z M143.52933,68.117139 C142.929995,68.117139 142.441647,67.6211396 142.441647,67.0349585 C142.441647,66.7418679 142.552635,66.4713228 142.752414,66.268414 C142.952192,66.0655051 143.218563,65.952778 143.507132,65.9302326 C144.08427,65.9302326 144.572618,66.426232 144.572618,67.0124131 C144.594815,67.6211396 144.128665,68.117139 143.52933,68.117139 Z" id="Shape" fill="#8497B0"></path>
                <path d="M91.8971588,60.8149867 C113.533008,59.1921428 132.550364,74.5866208 136.234006,95.8188292 L136.300578,96.3597772 L53.0857744,102.55814 L53.0635838,102.017192 C53.6627304,80.4694302 70.2613099,62.4378307 91.8971588,60.8149867 L91.8971588,60.8149867 Z" id="Path" fill="#F97B6E"></path>
                <path d="M29.157855,135.693926 C28.7847238,130.506709 32.6477293,125.981689 37.8057196,125.606444 C42.9637099,125.231198 47.4632334,129.116093 47.8363646,134.30331 C48.2094958,139.490528 44.3464903,144.015548 39.1885,144.390793 C34.0305097,144.788112 29.5309862,140.881144 29.157855,135.693926 Z" id="Path" fill="#8CD092"></path>
                <path d="M34.7466424,125.581395 L35.0160997,125.74025 C35.6672883,126.103347 36.2960221,126.579912 36.6328437,126.829541 C37.1717584,127.238025 37.3513966,127.351493 37.1942132,127.714589 C37.0370297,128.10038 36.3633864,128.463477 35.7346526,129.098896 C35.1059189,129.734316 34.0954539,131.050542 33.4442653,131.481719 C32.770622,131.912897 31.9173404,131.413639 31.7377022,131.685961 C31.558064,131.958284 32.3215264,132.775252 32.3439812,133.161042 C32.3888908,133.569526 32.3439812,134.000704 31.9397952,134.068784 C31.558064,134.136865 30.4802346,133.955317 30.0086843,133.569526 C29.5595888,133.183736 29.4697696,132.548316 29.2003123,131.731348 L29.132948,131.5498 L29.1554028,131.481719 C29.9637748,129.098896 31.6478831,127.101863 33.8709061,125.967186 L34.7466424,125.581395 L34.7466424,125.581395 Z M33.2421723,134.159559 C33.6463583,134.091478 33.7137226,134.99922 34.2301825,135.180768 C34.7466424,135.362317 35.8693813,135.112688 36.408296,135.31693 C36.9696654,135.521172 37.216668,136.201978 37.5759444,136.40622 C37.9352209,136.633156 38.4965903,136.179285 38.5639546,136.633156 C38.6088642,137.087027 38.1148591,138.471334 37.9127661,139.08406 C37.7106731,139.696786 37.5983992,139.923721 37.3738514,140.354899 C37.1493036,140.763383 36.7675724,141.103786 36.5430246,141.603044 C36.3184769,142.102302 36.2960221,143.146206 36.0490195,143.327754 C35.7795622,143.509303 35.2181927,143.100819 34.993645,142.692335 C34.7690972,142.283851 34.6568233,140.899544 34.6568233,140.899544 C34.4996399,140.127963 34.4996399,138.562108 34.1179086,138.017463 C33.7361774,137.472817 32.7032576,138.085543 32.3439812,137.677059 C31.96225,137.268575 31.6927926,136.179285 31.8499761,135.589252 C32.0071595,135.021914 32.8379863,134.227639 33.2421723,134.159559 L33.2421723,134.159559 Z M40.0235152,129.212364 C40.5399751,129.18967 41.1462541,129.280445 41.5953496,129.348525 C42.3363573,129.461993 42.8528172,130.097412 43.7060987,130.165493 C44.3572873,130.233574 45.1207497,130.120106 45.9291217,129.961251 L46.6027651,129.82509 L46.8048581,130.188187 C47.3662275,131.300171 47.725504,132.548316 47.8377778,133.887236 C47.9725065,135.884269 47.523411,137.790527 46.6027651,139.401769 L46.4231268,139.696786 L46.2659434,139.674092 C45.9740313,139.606011 45.906667,139.560624 45.7270287,139.310995 C45.4800262,138.970592 45.3902071,138.312479 45.1432045,137.654366 C44.896202,136.996253 44.492016,135.997736 44.3123777,135.38501 C44.1102847,134.772284 44.3572873,134.341107 43.9980108,133.97801 C43.6387344,133.59222 42.7405433,133.251816 42.1342643,133.138349 C41.5279853,133.024881 40.8992515,133.569526 40.3154273,133.319897 C39.7316031,133.070268 38.8109572,132.230606 38.631319,131.572493 C38.4516807,130.91438 38.7660476,129.779703 39.2600527,129.416606 C39.439691,129.280445 39.7091483,129.235057 40.0235152,129.212364 L40.0235152,129.212364 Z M42.4037216,125.876412 L43.0324554,126.194121 C43.8408274,126.647992 44.5593803,127.238025 45.2105688,127.918831 L45.6147548,128.395396 L45.2779332,128.440783 C44.7390185,128.508864 44.1551943,128.531557 43.7060987,128.508864 C42.7854528,128.463477 41.8423522,127.873444 41.0115254,127.828057 C40.1806986,127.759976 38.9905954,128.304622 38.6986833,128.123073 C38.4067712,127.941525 38.8558667,126.988396 39.237598,126.76146 C39.6193292,126.534525 40.3154273,126.988396 40.9441611,126.76146 C41.3483471,126.625299 41.8872617,126.216815 42.3588121,125.899105 L42.4037216,125.876412 Z" id="Shape" fill="#FACC7E"></path>
            </g>
        </g>
    </g>
</svg>